<mxfile host="app.diagrams.net" modified="2022-06-04T04:36:59.496Z" agent="5.0 (Windows NT 10.0; Win64; x64) AppleWebKit/537.36 (KHTML, like Gecko) Chrome/102.0.5005.63 Safari/537.36" etag="NxSwD6fkxvakJRT0eR4M" version="19.0.0" type="github" pages="2">
  <diagram id="uji4eiZnyf8ZzB4BIE68" name="Page-1">
    <mxGraphModel dx="906" dy="470" grid="1" gridSize="10" guides="1" tooltips="1" connect="1" arrows="1" fold="1" page="1" pageScale="1" pageWidth="850" pageHeight="1100" math="0" shadow="0">
      <root>
        <mxCell id="0" />
        <mxCell id="1" parent="0" />
        <mxCell id="nrLTxZRfDalYQ-48DonA-1" value="Person" style="shape=umlActor;verticalLabelPosition=bottom;verticalAlign=top;html=1;outlineConnect=0;" vertex="1" parent="1">
          <mxGeometry x="60" y="340" width="30" height="60" as="geometry" />
        </mxCell>
        <mxCell id="nrLTxZRfDalYQ-48DonA-3" value="SPRINTO" style="rounded=0;whiteSpace=wrap;html=1;" vertex="1" parent="1">
          <mxGeometry x="160" y="350" width="120" height="60" as="geometry" />
        </mxCell>
        <mxCell id="nrLTxZRfDalYQ-48DonA-4" value="" style="endArrow=classic;html=1;rounded=0;entryX=-0.004;entryY=0.369;entryDx=0;entryDy=0;entryPerimeter=0;" edge="1" parent="1">
          <mxGeometry width="50" height="50" relative="1" as="geometry">
            <mxPoint x="89" y="370.37979176526267" as="sourcePoint" />
            <mxPoint x="158.51999999999998" y="372.14" as="targetPoint" />
          </mxGeometry>
        </mxCell>
        <mxCell id="nrLTxZRfDalYQ-48DonA-5" value="API" style="rounded=0;whiteSpace=wrap;html=1;" vertex="1" parent="1">
          <mxGeometry x="350" y="350" width="120" height="60" as="geometry" />
        </mxCell>
        <mxCell id="nrLTxZRfDalYQ-48DonA-6" value="POLICY API" style="rounded=0;whiteSpace=wrap;html=1;" vertex="1" parent="1">
          <mxGeometry x="530" y="230" width="120" height="60" as="geometry" />
        </mxCell>
        <mxCell id="nrLTxZRfDalYQ-48DonA-7" value="USER API" style="rounded=0;whiteSpace=wrap;html=1;" vertex="1" parent="1">
          <mxGeometry x="530" y="320" width="120" height="60" as="geometry" />
        </mxCell>
        <mxCell id="nrLTxZRfDalYQ-48DonA-8" value="TEMPLATE API" style="rounded=0;whiteSpace=wrap;html=1;" vertex="1" parent="1">
          <mxGeometry x="530" y="410" width="120" height="60" as="geometry" />
        </mxCell>
        <mxCell id="nrLTxZRfDalYQ-48DonA-9" value="API" style="rounded=0;whiteSpace=wrap;html=1;" vertex="1" parent="1">
          <mxGeometry x="530" y="500" width="120" height="60" as="geometry" />
        </mxCell>
        <mxCell id="nrLTxZRfDalYQ-48DonA-10" value="" style="endArrow=classic;html=1;rounded=0;entryX=-0.014;entryY=0.475;entryDx=0;entryDy=0;entryPerimeter=0;" edge="1" parent="1">
          <mxGeometry width="50" height="50" relative="1" as="geometry">
            <mxPoint x="283" y="379" as="sourcePoint" />
            <mxPoint x="345.31999999999994" y="378.5" as="targetPoint" />
          </mxGeometry>
        </mxCell>
        <mxCell id="nrLTxZRfDalYQ-48DonA-11" value="" style="endArrow=classic;html=1;rounded=0;entryX=0;entryY=0.5;entryDx=0;entryDy=0;exitX=1;exitY=0.5;exitDx=0;exitDy=0;" edge="1" parent="1" source="nrLTxZRfDalYQ-48DonA-5" target="nrLTxZRfDalYQ-48DonA-7">
          <mxGeometry width="50" height="50" relative="1" as="geometry">
            <mxPoint x="470" y="370.42999999999995" as="sourcePoint" />
            <mxPoint x="538.32" y="370" as="targetPoint" />
          </mxGeometry>
        </mxCell>
        <mxCell id="nrLTxZRfDalYQ-48DonA-12" value="" style="endArrow=classic;html=1;rounded=0;entryX=0;entryY=0.5;entryDx=0;entryDy=0;exitX=1;exitY=0.5;exitDx=0;exitDy=0;" edge="1" parent="1" source="nrLTxZRfDalYQ-48DonA-5" target="nrLTxZRfDalYQ-48DonA-8">
          <mxGeometry width="50" height="50" relative="1" as="geometry">
            <mxPoint x="470" y="370.42999999999995" as="sourcePoint" />
            <mxPoint x="538.32" y="370" as="targetPoint" />
          </mxGeometry>
        </mxCell>
        <mxCell id="nrLTxZRfDalYQ-48DonA-13" value="" style="endArrow=classic;html=1;rounded=0;entryX=-0.01;entryY=0.542;entryDx=0;entryDy=0;exitX=1;exitY=0.5;exitDx=0;exitDy=0;entryPerimeter=0;" edge="1" parent="1" source="nrLTxZRfDalYQ-48DonA-5" target="nrLTxZRfDalYQ-48DonA-9">
          <mxGeometry width="50" height="50" relative="1" as="geometry">
            <mxPoint x="310" y="408.92999999999995" as="sourcePoint" />
            <mxPoint x="378.32000000000005" y="408.5" as="targetPoint" />
          </mxGeometry>
        </mxCell>
        <mxCell id="nrLTxZRfDalYQ-48DonA-14" value="" style="endArrow=classic;html=1;rounded=0;entryX=0;entryY=0.5;entryDx=0;entryDy=0;exitX=1;exitY=0.5;exitDx=0;exitDy=0;" edge="1" parent="1" source="nrLTxZRfDalYQ-48DonA-5" target="nrLTxZRfDalYQ-48DonA-6">
          <mxGeometry width="50" height="50" relative="1" as="geometry">
            <mxPoint x="320" y="418.92999999999995" as="sourcePoint" />
            <mxPoint x="388.32000000000005" y="418.5" as="targetPoint" />
          </mxGeometry>
        </mxCell>
        <mxCell id="nrLTxZRfDalYQ-48DonA-15" value="" style="endArrow=classic;html=1;rounded=0;entryX=-0.014;entryY=0.475;entryDx=0;entryDy=0;exitX=1;exitY=0.5;exitDx=0;exitDy=0;entryPerimeter=0;" edge="1" parent="1" source="nrLTxZRfDalYQ-48DonA-6" target="nrLTxZRfDalYQ-48DonA-16">
          <mxGeometry width="50" height="50" relative="1" as="geometry">
            <mxPoint x="330" y="428.92999999999995" as="sourcePoint" />
            <mxPoint x="398.32000000000005" y="428.5" as="targetPoint" />
          </mxGeometry>
        </mxCell>
        <mxCell id="nrLTxZRfDalYQ-48DonA-16" value="DB" style="shape=cylinder3;whiteSpace=wrap;html=1;boundedLbl=1;backgroundOutline=1;size=15;" vertex="1" parent="1">
          <mxGeometry x="750" y="340" width="60" height="80" as="geometry" />
        </mxCell>
        <mxCell id="nrLTxZRfDalYQ-48DonA-17" value="" style="endArrow=classic;html=1;rounded=0;entryX=0.009;entryY=0.549;entryDx=0;entryDy=0;exitX=1;exitY=0.5;exitDx=0;exitDy=0;entryPerimeter=0;" edge="1" parent="1" source="nrLTxZRfDalYQ-48DonA-7" target="nrLTxZRfDalYQ-48DonA-16">
          <mxGeometry width="50" height="50" relative="1" as="geometry">
            <mxPoint x="340" y="438.92999999999995" as="sourcePoint" />
            <mxPoint x="408.32000000000005" y="438.5" as="targetPoint" />
          </mxGeometry>
        </mxCell>
        <mxCell id="nrLTxZRfDalYQ-48DonA-18" value="" style="endArrow=classic;html=1;rounded=0;entryX=0.013;entryY=0.585;entryDx=0;entryDy=0;exitX=1;exitY=0.5;exitDx=0;exitDy=0;entryPerimeter=0;" edge="1" parent="1" source="nrLTxZRfDalYQ-48DonA-8" target="nrLTxZRfDalYQ-48DonA-16">
          <mxGeometry width="50" height="50" relative="1" as="geometry">
            <mxPoint x="350" y="448.92999999999995" as="sourcePoint" />
            <mxPoint x="418.32000000000005" y="448.5" as="targetPoint" />
          </mxGeometry>
        </mxCell>
        <mxCell id="nrLTxZRfDalYQ-48DonA-19" value="" style="endArrow=classic;html=1;rounded=0;entryX=0.005;entryY=0.706;entryDx=0;entryDy=0;exitX=0.992;exitY=0.127;exitDx=0;exitDy=0;exitPerimeter=0;entryPerimeter=0;" edge="1" parent="1" source="nrLTxZRfDalYQ-48DonA-9" target="nrLTxZRfDalYQ-48DonA-16">
          <mxGeometry width="50" height="50" relative="1" as="geometry">
            <mxPoint x="360" y="458.92999999999995" as="sourcePoint" />
            <mxPoint x="428.32000000000005" y="458.5" as="targetPoint" />
          </mxGeometry>
        </mxCell>
        <mxCell id="rce3oiub8I4S2v_okiSg-2" value="" style="endArrow=classic;html=1;rounded=0;entryX=1.008;entryY=0.653;entryDx=0;entryDy=0;entryPerimeter=0;" edge="1" parent="1">
          <mxGeometry width="50" height="50" relative="1" as="geometry">
            <mxPoint x="342" y="389" as="sourcePoint" />
            <mxPoint x="282.9599999999999" y="389.18" as="targetPoint" />
          </mxGeometry>
        </mxCell>
        <mxCell id="rce3oiub8I4S2v_okiSg-3" value="" style="endArrow=classic;html=1;rounded=0;entryX=1.008;entryY=0.653;entryDx=0;entryDy=0;entryPerimeter=0;exitX=-0.02;exitY=0.667;exitDx=0;exitDy=0;exitPerimeter=0;" edge="1" parent="1">
          <mxGeometry width="50" height="50" relative="1" as="geometry">
            <mxPoint x="155.00000000000003" y="380.84" as="sourcePoint" />
            <mxPoint x="88.36000000000004" y="379.99999999999994" as="targetPoint" />
          </mxGeometry>
        </mxCell>
      </root>
    </mxGraphModel>
  </diagram>
  <diagram id="nO06zlLsbq7QMOsoY4KM" name="Page-2">
    <mxGraphModel dx="1902" dy="986" grid="1" gridSize="10" guides="1" tooltips="1" connect="1" arrows="1" fold="1" page="1" pageScale="1" pageWidth="850" pageHeight="1100" math="0" shadow="0">
      <root>
        <mxCell id="0" />
        <mxCell id="1" parent="0" />
      </root>
    </mxGraphModel>
  </diagram>
</mxfile>
